SPORT: Scrum V Live - Dragons v Warriors
On: BBC 2 Wales
Date: Friday 15th February 2013
Time: 19:00 to 21:00 

The Dragons welcome the Warriors to Rodney Parade for this Pro 12 encounter. Martyn Williams joins Ross Harries in the studio, Sean Holley is in the analysis truck and Phil Steele is roving the touchline. Gareth Charles commentates.


General
Complete name: 2013.02.15.Dragons.v.Warriors.pdtv.x264.mkv
Format: Matroska
Format version: Version 4 / Version 2
File size: 1.34 GiB
Duration: 1h 58mn
Overall bit rate: 1 609 Kbps
Encoded date: UTC 2013-02-16 03:20:09
Writing application: mkvmerge v6.0.0 ('Coming Up For Air') built on Jan 20 2013 09:52:00
Writing library: libebml v1.3.0 + libmatroska v1.4.0

Video
ID: 1
Format: AVC
Format/Info: Advanced Video Codec
Format profile: High@L3.1
Format settings, CABAC: Yes
Format settings, ReFrames: 8 frames
Codec ID: V_MPEG4/ISO/AVC
Duration: 1h 58mn
Bit rate: 1 449 Kbps
Width: 688 pixels
Height: 560 pixels
Display aspect ratio: 16:9
Original display aspect ratio: 16:9
Frame rate mode: Constant
Frame rate: 25.000 fps
Color space: YUV
Chroma subsampling: 4:2:0
Bit depth: 8 bits
Scan type: Progressive
Bits/(Pixel*Frame): 0.150
Stream size: 1.20 GiB (90%)
Writing library: x264 core 129 r2245 bc13772

Audio
ID: 2
Format: AC-3
Format/Info: Audio Coding 3
Mode extension: CM (complete main)
Format settings, Endianness: Big
Codec ID: A_AC3
Duration: 1h 58mn
Bit rate mode: Constant
Bit rate: 128 Kbps
Channel(s): 2 channels
Channel positions: Front: L R
Sampling rate: 48.0 KHz
Bit depth: 16 bits
Compression mode: Lossy
Stream size: 109 MiB (8%)

